<?xml version="1.0" encoding="UTF-8" standalone="no"?>
<svg
   xmlns:dc="http://purl.org/dc/elements/1.1/"
   xmlns:cc="http://creativecommons.org/ns#"
   xmlns:rdf="http://www.w3.org/1999/02/22-rdf-syntax-ns#"
   xmlns:svg="http://www.w3.org/2000/svg"
   xmlns="http://www.w3.org/2000/svg"
   xmlns:sodipodi="http://sodipodi.sourceforge.net/DTD/sodipodi-0.dtd"
   xmlns:inkscape="http://www.inkscape.org/namespaces/inkscape"
   version="1.1"
   id="svg2"
   xml:space="preserve"
   width="341.69333"
   height="341.78668"
   viewBox="0 0 341.69333 341.78668"
   sodipodi:docname="logo-tr.eps"><metadata
     id="metadata8"><rdf:RDF><cc:Work
         rdf:about=""><dc:format>image/svg+xml</dc:format><dc:type
           rdf:resource="http://purl.org/dc/dcmitype/StillImage" /></cc:Work></rdf:RDF></metadata><defs
     id="defs6" /><sodipodi:namedview
     pagecolor="#ffffff"
     bordercolor="#666666"
     borderopacity="1"
     objecttolerance="10"
     gridtolerance="10"
     guidetolerance="10"
     inkscape:pageopacity="0"
     inkscape:pageshadow="2"
     inkscape:window-width="640"
     inkscape:window-height="480"
     id="namedview4" /><g
     id="g10"
     inkscape:groupmode="layer"
     inkscape:label="ink_ext_XXXXXX"
     transform="matrix(1.3333333,0,0,-1.3333333,0,341.78667)"><g
       id="g12"
       transform="scale(0.1)"><path
         d="m 7.5,1281.34 c 0,703.54 570.313,1273.85 1273.84,1273.85 703.53,0 1273.86,-570.31 1273.86,-1273.85 C 2555.2,577.82 1984.87,7.51172 1281.34,7.51172 577.813,7.51172 7.5,577.82 7.5,1281.34"
         style="fill:#ffffff;fill-opacity:1;fill-rule:nonzero;stroke:none"
         id="path14" /><path
         d="m 7.5,1281.34 c 0,703.54 570.313,1273.85 1273.84,1273.85 703.53,0 1273.86,-570.31 1273.86,-1273.85 C 2555.2,577.82 1984.87,7.51172 1281.34,7.51172 577.813,7.51172 7.5,577.82 7.5,1281.34 Z"
         style="fill:none;stroke:#154280;stroke-width:15;stroke-linecap:butt;stroke-linejoin:miter;stroke-miterlimit:3.86371;stroke-dasharray:none;stroke-opacity:1"
         id="path16" /><path
         d="m 423.008,1281.34 c 0,474.05 384.289,858.34 858.342,858.34 474.05,0 858.33,-384.29 858.33,-858.34 0,-474.051 -384.28,-858.32 -858.33,-858.32 -474.053,0 -858.342,384.269 -858.342,858.32"
         style="fill:#ffffff;fill-opacity:1;fill-rule:nonzero;stroke:none"
         id="path18" /><path
         d="m 423.008,1281.34 c 0,474.05 384.289,858.34 858.342,858.34 474.05,0 858.33,-384.29 858.33,-858.34 0,-474.051 -384.28,-858.32 -858.33,-858.32 -474.053,0 -858.342,384.269 -858.342,858.32 z"
         style="fill:none;stroke:#154280;stroke-width:15;stroke-linecap:butt;stroke-linejoin:miter;stroke-miterlimit:22.9256;stroke-dasharray:none;stroke-opacity:1"
         id="path20" /><path
         d="m 268.848,1027.26 -5.223,23.78 c -3.691,16.87 -9.332,28.45 -16.926,34.76 -7.57,6.31 -17.777,8.04 -30.605,5.22 -12.844,-2.82 -21.528,-8.79 -26.047,-17.86 -4.52,-9.09 -5.016,-21.59 -1.52,-37.55 l 5.457,-24.82 z m 121.148,26.71 7.133,-32.46 -226.145,-49.819 -11.515,52.479 c -3.266,14.79 -5.004,26.21 -5.254,34.25 -0.25,8.02 0.703,15.33 2.848,21.88 3.414,10.61 9.609,19.84 18.578,27.7 8.988,7.83 19.425,13.05 31.312,15.68 21.016,4.65 39.332,1.24 54.93,-10.21 15.594,-11.41 26.043,-29.24 31.367,-53.47 l 5.734,-26.1 91.012,20.07"
         style="fill:#154280;fill-opacity:1;fill-rule:nonzero;stroke:none"
         id="path22" /><path
         d="m 261.813,1269.94 -86.586,-36.14 89.199,-29.62 z m 35.656,-76.34 68.418,-23.31 1.41,-35.44 -234.942,80.95 -1.312,32.59 227.738,99.83 1.465,-36.7 -66.363,-28.16 3.586,-89.76"
         style="fill:#154280;fill-opacity:1;fill-rule:nonzero;stroke:none"
         id="path24" /><path
         d="m 364.656,1386.29 -6.613,-31.61 -226.625,47.17 10.191,48.73 188.993,29.22 -161.512,102.17 10.062,48.1 226.602,-47.17 -6.441,-30.83 -196.254,43.14 181.324,-114.58 -4.895,-23.37 -212.058,-32.36 197.226,-38.61"
         style="fill:#154280;fill-opacity:1;fill-rule:nonzero;stroke:none"
         id="path26" /><path
         d="m 212.211,1712.01 14.516,30.26 132.757,-63.58 c 18.911,-9.07 33.399,-12.55 43.477,-10.42 10.055,2.11 18.359,9.95 24.875,23.53 6.187,12.91 6.828,23.84 1.891,32.79 -4.934,8.95 -16.727,17.88 -35.348,26.81 l -132.746,63.58 14.531,30.26 132.449,-63.45 c 14.149,-6.78 24.625,-12.77 31.414,-17.95 6.786,-5.2 12.082,-10.94 15.883,-17.23 6.528,-10.89 9.942,-21.95 10.231,-33.2 0.304,-11.27 -2.489,-23.01 -8.352,-35.26 -6.441,-13.38 -14.101,-23.58 -22.988,-30.6 -8.903,-7.03 -19.785,-11.59 -32.656,-13.65 -7.325,-1.07 -14.821,-0.77 -22.489,0.9 -7.664,1.66 -19.328,6.25 -34.976,13.77 l -132.469,63.44"
         style="fill:#154280;fill-opacity:1;fill-rule:nonzero;stroke:none"
         id="path28" /><path
         d="m 431.758,1870.99 -41.238,139.61 24.148,32.4 38.437,-140.7 145.836,0.72 -25.203,-33.79 z m 91.398,-69.63 -20.058,-26.92 -185.602,138.18 20.059,26.93 185.601,-138.19"
         style="fill:#154280;fill-opacity:1;fill-rule:nonzero;stroke:none"
         id="path30" /><path
         d="m 557.762,2019.91 -14.328,144.87 29.796,27.31 11.36,-145.42 143.367,-26.63 -31.078,-28.48 z m 76.699,-85.54 -24.746,-22.69 -156.375,170.56 24.746,22.67 156.375,-170.54"
         style="fill:#154280;fill-opacity:1;fill-rule:nonzero;stroke:none"
         id="path32" /><path
         d="m 781.043,2169.04 -73.426,58.26 17.078,-92.39 z m -49.66,-68.18 12.578,-71.15 -30.34,-18.38 -42.441,244.8 27.879,16.9 197.308,-150.98 -31.426,-19.05 -56.679,44.43 -76.879,-46.57"
         style="fill:#154280;fill-opacity:1;fill-rule:nonzero;stroke:none"
         id="path34" /><path
         d="m 1009.29,2161.13 -102.11,-39.4 -83.227,215.89 31.313,12.08 71.738,-186.08 70.809,27.32 11.477,-29.81"
         style="fill:#154280;fill-opacity:1;fill-rule:nonzero;stroke:none"
         id="path36" /><path
         d="m 1150.95,2193.07 -117.66,-24.87 -47.696,226.44 117.676,24.86 6.35,-30.16 -84.83,-17.93 14.25,-67.66 84.83,17.93 6.22,-29.54 -84.83,-17.93 14.28,-67.81 84.83,17.94 6.58,-31.27"
         style="fill:#154280;fill-opacity:1;fill-rule:nonzero;stroke:none"
         id="path38" /><path
         d="m 1388.13,2457.98 2.64,33.12 29.18,-2.3 -2.64,-33.13 z m -56.45,4.43 2.64,33.13 29.18,-2.3 -2.63,-33.12 z m -33.68,-28.28 33.46,-2.63 -11.7,-146.75 c -1.67,-20.91 0.28,-35.68 5.88,-44.3 5.59,-8.63 15.88,-13.54 30.9,-14.71 14.27,-1.14 24.69,2.22 31.27,10.05 6.59,7.82 10.7,22.03 12.34,42.64 l 11.7,146.74 33.44,-2.64 -11.67,-146.43 c -1.24,-15.62 -3.07,-27.55 -5.47,-35.76 -2.4,-8.2 -5.88,-15.21 -10.37,-21.03 -7.82,-10.01 -16.93,-17.18 -27.33,-21.52 -10.39,-4.34 -22.36,-5.98 -35.89,-4.91 -14.81,1.16 -27.08,4.63 -36.84,10.39 -9.74,5.77 -17.89,14.27 -24.43,25.52 -3.65,6.46 -6.06,13.57 -7.24,21.3 -1.21,7.76 -1.1,20.3 0.27,37.62 l 11.68,146.42"
         style="fill:#154280;fill-opacity:1;fill-rule:nonzero;stroke:none"
         id="path40" /><path
         d="m 1492.32,2177.75 -32.17,9.59 66.45,221.78 33.07,-9.87 58.66,-200.37 48.76,168.3 31.7,-9.46 -66.45,-221.77 -30.76,9.19 -59.61,206.13 -49.65,-173.52"
         style="fill:#154280;fill-opacity:1;fill-rule:nonzero;stroke:none"
         id="path42" /><path
         d="m 1780.91,2351.59 15.35,31.79 27.49,-13.23 -15.33,-31.81 z m -84.71,-249.38 -30.24,14.54 100.55,208.58 30.22,-14.54 -100.53,-208.58"
         style="fill:#154280;fill-opacity:1;fill-rule:nonzero;stroke:none"
         id="path44" /><path
         d="m 1800.23,2040.68 -16.52,11.03 54.54,242.03 29.48,-19.69 -43.02,-178.76 148.94,108.05 29.21,-19.5 -202.63,-143.16"
         style="fill:#154280;fill-opacity:1;fill-rule:nonzero;stroke:none"
         id="path46" /><path
         d="m 1965.63,1898.45 -86.04,83.9 161.73,165.75 86.03,-83.89 -21.54,-22.09 -62.01,60.48 -48.32,-49.52 62.02,-60.49 -21.12,-21.63 -62.02,60.5 -48.44,-49.63 62.04,-60.5 -22.33,-22.88"
         style="fill:#154280;fill-opacity:1;fill-rule:nonzero;stroke:none"
         id="path48" /><path
         d="m 2101.21,1907.32 9.89,-14.01 c 13.39,-18.97 26.44,-30.9 39.11,-35.82 12.7,-4.92 25.33,-2.96 37.88,5.92 12.23,8.62 18.38,18.93 18.46,30.93 0.1,12.02 -5.93,26.62 -18.1,43.84 l -14.47,20.53 z m -90.96,-64.22 -19.34,27.41 189.18,133.58 38.5,-54.54 c 16.03,-22.69 23.01,-43.7 20.96,-63.05 -2.04,-19.34 -12.99,-36.02 -32.83,-50.03 -15.41,-10.88 -31.84,-14.99 -49.24,-12.3 -17.41,2.71 -32.06,11.64 -43.96,26.85 l -34.78,-104.92 -24.2,34.29 43.54,124.74 -87.83,-62.03"
         style="fill:#154280;fill-opacity:1;fill-rule:nonzero;stroke:none"
         id="path50" /><path
         d="m 2146.59,1759.69 12.68,-27.25 c -10.63,-5.53 -17.82,-12.78 -21.55,-21.76 -3.72,-8.97 -3.38,-18.22 1.05,-27.73 4.87,-10.48 12,-17.36 21.41,-20.64 9.44,-3.27 19.56,-2.39 30.43,2.67 9.51,4.42 15.8,10.15 18.86,17.18 3.04,7.03 3.4,18.94 1.09,35.75 -0.16,0.86 -0.43,2.31 -0.79,4.37 -3.46,19.77 -1.64,36.11 5.46,49 3.06,5.75 6.85,10.75 11.37,15 4.5,4.27 9.78,7.81 15.86,10.61 17.96,8.38 34.97,9.81 51.05,4.3 16.04,-5.5 28.11,-16.9 36.14,-34.2 7.45,-16.05 8.5,-31.33 3.13,-45.8 -5.37,-14.48 -16.46,-26.27 -33.28,-35.38 l -13.2,28.41 c 8.13,4.35 13.6,10.31 16.34,17.85 2.76,7.53 2.33,15.19 -1.28,22.98 -3.9,8.36 -9.93,13.83 -18.07,16.41 -8.16,2.58 -16.74,1.76 -25.79,-2.44 -3.19,-1.47 -5.92,-3.34 -8.26,-5.61 -2.36,-2.25 -4.25,-4.95 -5.72,-8.09 -2.99,-6.4 -3.11,-17.22 -0.36,-32.42 1.26,-7.01 2.1,-12.47 2.51,-16.36 1.23,-16.27 -1.44,-30.27 -8.02,-42.03 -6.56,-11.77 -16.77,-20.87 -30.61,-27.31 -20.29,-9.44 -39.32,-11.27 -57.09,-5.51 -17.75,5.76 -31.06,18.17 -39.89,37.19 -8.32,17.87 -9.15,35.18 -2.46,51.89 6.67,16.72 19.68,29.7 38.99,38.92"
         style="fill:#154280;fill-opacity:1;fill-rule:nonzero;stroke:none"
         id="path52" /><path
         d="m 2400.91,1657.44 33.63,10.84 9.34,-29.05 -33.61,-10.84 z m -239.08,-110.61 -10.27,31.94 220.4,71.03 10.27,-31.94 -220.4,-71.03"
         style="fill:#154280;fill-opacity:1;fill-rule:nonzero;stroke:none"
         id="path54" /><path
         d="m 2185.42,1449.74 -6.74,32.85 196.29,40.34 -8.71,42.53 30.52,6.27 24.12,-117.74 -30.53,-6.28 -8.67,42.35 -196.28,-40.32"
         style="fill:#154280;fill-opacity:1;fill-rule:nonzero;stroke:none"
         id="path56" /><path
         d="m 2202.35,1267.22 -5.74,120.09 231.26,11.24 5.72,-120.07 -30.8,-1.49 -4.13,86.55 -69.09,-3.36 4.13,-86.55 -30.17,-1.48 -4.15,86.57 -69.23,-3.38 4.12,-86.55 -31.92,-1.57"
         style="fill:#154280;fill-opacity:1;fill-rule:nonzero;stroke:none"
         id="path58" /><path
         d="m 2268.43,1232.89 -3.64,-29.84 c -11.95,0.91 -21.86,-1.46 -29.76,-7.14 -7.9,-5.66 -12.49,-13.71 -13.75,-24.13 -1.4,-11.46 1.04,-21.07 7.29,-28.83 6.27,-7.74 15.35,-12.33 27.23,-13.77 10.44,-1.24 18.79,0.28 25.09,4.67 6.28,4.34 12.89,14.3 19.81,29.79 0.28,0.81 0.84,2.2 1.61,4.13 7.5,18.63 17.68,31.56 30.5,38.77 5.62,3.27 11.49,5.53 17.56,6.77 6.07,1.25 12.44,1.46 19.06,0.66 19.68,-2.37 34.88,-10.13 45.63,-23.29 10.73,-13.14 14.94,-29.2 12.62,-48.12 -2.13,-17.58 -9.3,-31.11 -21.5,-40.59 -12.21,-9.45 -27.85,-13.63 -46.94,-12.52 l 3.79,31.1 c 9.21,-0.58 17,1.6 23.29,6.56 6.31,4.98 10.01,11.7 11.04,20.21 1.12,9.17 -1.12,16.99 -6.68,23.48 -5.56,6.49 -13.27,10.33 -23.18,11.53 -3.47,0.41 -6.79,0.29 -9.98,-0.4 -3.17,-0.68 -6.22,-1.96 -9.12,-3.88 -5.91,-3.86 -11.71,-12.99 -17.42,-27.35 -2.62,-6.62 -4.79,-11.71 -6.49,-15.24 -7.53,-14.47 -17.2,-24.98 -29,-31.5 -11.77,-6.52 -25.25,-8.88 -40.39,-7.05 -22.21,2.69 -39.34,11.14 -51.37,25.41 -12.04,14.27 -16.8,31.84 -14.25,52.67 2.37,19.58 10.81,34.71 25.29,45.4 14.49,10.68 32.38,14.84 53.66,12.5"
         style="fill:#154280;fill-opacity:1;fill-rule:nonzero;stroke:none"
         id="path60" /><path
         d="m 2430.58,1012.28 34.26,-8.47 -7.34,-29.63 -34.26,8.449 z m -261.44,31.57 8.07,32.57 224.74,-55.44 -8.08,-32.57 -224.73,55.44"
         style="fill:#154280;fill-opacity:1;fill-rule:nonzero;stroke:none"
         id="path62" /><path
         d="m 839.844,218.801 31.453,-11.871 c 19.906,-7.489 37.836,-7.629 53.808,-0.399 15.95,7.231 27.688,20.809 35.18,40.731 7.77,20.636 7.715,39.117 -0.191,55.386 -7.91,16.293 -22.715,28.512 -44.418,36.692 l -26.672,10.039 z m 16.035,-33.43 -50.25,18.93 67.394,179.051 57.637,-21.723 c 26.875,-10.117 45.426,-26.617 55.668,-49.488 10.246,-22.86 10.32,-47.7 0.227,-74.493 -5.739,-15.257 -14.063,-27.988 -24.981,-38.199 -10.898,-10.219 -23.738,-17.301 -38.515,-21.269 -10,-2.711 -19.922,-3.602 -29.782,-2.692 -9.843,0.903 -22.328,4.203 -37.398,9.883"
         style="fill:#154280;fill-opacity:1;fill-rule:nonzero;stroke:none"
         id="path64" /><path
         d="m 1108.13,115.898 -97.41,19.192 36.98,187.719 97.39,-19.188 -4.92,-25.019 -70.2,13.847 -11.06,-56.09 70.22,-13.828 -4.83,-24.511 -70.21,13.859 -11.08,-56.207 70.2,-13.863 -5.08,-25.911"
         style="fill:#154280;fill-opacity:1;fill-rule:nonzero;stroke:none"
         id="path66" /><path
         d="m 1202.83,105.512 -27.69,0.797 5.57,191.23 28.48,-0.828 89.63,-147.43 2.91,144.778 27.3,-0.809 -5.57,-191.219 -26.5,0.77 -91.62,151.847 -2.51,-149.136"
         style="fill:#154280;fill-opacity:1;fill-rule:nonzero;stroke:none"
         id="path68" /><path
         d="m 1411.98,110.93 -27.57,-2.789 -19.16,190.339 27.56,2.782 z m -47.9,212.25 -2.93,29.019 25.09,2.539 2.93,-29.027 -25.09,-2.531"
         style="fill:#154280;fill-opacity:1;fill-rule:nonzero;stroke:none"
         id="path70" /><path
         d="m 1571.04,139.02 -114.88,-23.649 -5.45,26.641 54.36,151.226 -76.67,-15.769 -5.4,26.371 108.03,22.25 4.87,-23.68 -56.63,-155.32 86.46,17.789 5.31,-25.859"
         style="fill:#154280;fill-opacity:1;fill-rule:nonzero;stroke:none"
         id="path72" /><path
         d="m 1703.89,182.781 -85.4,-29.492 -62.27,180.859 26.19,9.043 53.69,-155.89 59.23,20.461 8.56,-24.981"
         style="fill:#154280;fill-opacity:1;fill-rule:nonzero;stroke:none"
         id="path74" /><path
         d="m 1769.48,212.27 -25.25,-11.5 -79.13,174.128 25.22,11.473 z m -113.39,185.652 -12.08,26.558 22.95,10.45 12.08,-26.551 -22.95,-10.457"
         style="fill:#154280;fill-opacity:1;fill-rule:nonzero;stroke:none"
         id="path76" /><path
         d="m 1016.02,1860.8 h 732.73 v -732.72 h -202.83 l -0.5,285.9 c 0.21,32.54 -107.09,57.16 -238.69,57.16 -22,0 -43.32,-0.69 -63.57,-1.97 -16.07,33.26 -75.02,58.06 -144.93,58.06 -21.26,0 -50.51,-5.53 -82.21,-13.72 v 347.29"
         style="fill:#287ac8;fill-opacity:1;fill-rule:nonzero;stroke:none"
         id="path78" /><path
         d="m 813.945,701.891 0.168,551.189 h 311.997 c 26.29,-2.99 54.37,-4.67 83.15,-4.67 131.61,0 229.62,35.14 229.62,70.72 0,17.24 -25.2,32.94 -66.15,44.54 96.49,6.39 168.21,26.4 172.69,50.31 l 1.25,-712.089 H 813.945"
         style="fill:#154280;fill-opacity:1;fill-rule:evenodd;stroke:none"
         id="path80" /><path
         d="m 1146.06,507.07 h -17.66 v 106.5 h -21.07 v 14.27 h 38.73 V 507.07"
         style="fill:#154280;fill-opacity:1;fill-rule:nonzero;stroke:none"
         id="path82" /><path
         d="m 1258.13,586.359 c 0,7.469 -2.44,13.789 -7.3,18.961 -4.87,5.16 -10.76,7.75 -17.67,7.75 -7.58,0 -13.66,-2.34 -18.25,-7.05 -4.59,-4.7 -6.89,-10.95 -6.89,-18.739 0,-7.472 2.31,-13.59 6.93,-18.383 4.62,-4.777 10.52,-7.168 17.71,-7.168 7.14,0 13.16,2.411 18.08,7.211 4.93,4.821 7.39,10.629 7.39,17.418 z m -27.87,-79.289 h -19.58 l 27.37,40.969 c -1.71,-0.719 -3.34,-1.238 -4.89,-1.57 -1.55,-0.328 -3.02,-0.5 -4.4,-0.5 -10.56,0 -19.54,3.972 -26.96,11.902 -7.4,7.938 -11.11,17.488 -11.11,28.66 0,3.758 0.52,7.547 1.58,11.367 1.05,3.813 2.62,7.582 4.72,11.282 3.71,6.742 8.67,11.941 14.89,15.59 6.22,3.652 13.2,5.468 20.95,5.468 5.69,0 11.03,-1.027 16,-3.097 4.98,-2.082 9.43,-5.129 13.36,-9.172 3.92,-4.039 6.98,-8.571 9.16,-13.61 2.19,-5.031 3.28,-10.121 3.28,-15.257 0,-10.332 -5.81,-24.192 -17.42,-41.551 l -0.41,-0.672 -26.54,-39.809"
         style="fill:#154280;fill-opacity:1;fill-rule:nonzero;stroke:none"
         id="path84" /><path
         d="m 1355.26,586.359 c 0,7.469 -2.43,13.789 -7.3,18.961 -4.87,5.16 -10.76,7.75 -17.67,7.75 -7.58,0 -13.66,-2.34 -18.25,-7.05 -4.59,-4.7 -6.89,-10.95 -6.89,-18.739 0,-7.472 2.32,-13.59 6.94,-18.383 4.62,-4.777 10.51,-7.168 17.7,-7.168 7.14,0 13.17,2.411 18.09,7.211 4.92,4.821 7.38,10.629 7.38,17.418 z m -27.87,-79.289 h -19.58 l 27.37,40.969 c -1.71,-0.719 -3.34,-1.238 -4.89,-1.57 -1.54,-0.328 -3.01,-0.5 -4.39,-0.5 -10.57,0 -19.56,3.972 -26.96,11.902 -7.42,7.938 -11.12,17.488 -11.12,28.66 0,3.758 0.53,7.547 1.58,11.367 1.05,3.813 2.62,7.582 4.73,11.282 3.7,6.742 8.66,11.941 14.88,15.59 6.22,3.652 13.2,5.468 20.95,5.468 5.69,0 11.03,-1.027 16,-3.097 4.98,-2.082 9.44,-5.129 13.35,-9.172 3.93,-4.039 7.01,-8.571 9.18,-13.61 2.19,-5.031 3.26,-10.121 3.26,-15.257 0,-10.332 -5.8,-24.192 -17.41,-41.551 l -0.41,-0.672 -26.54,-39.809"
         style="fill:#154280;fill-opacity:1;fill-rule:nonzero;stroke:none"
         id="path86" /><path
         d="m 1465.07,507.07 h -76.39 v 16.828 l 42.3,40.571 0.67,0.66 c 11.11,10.73 16.67,19.633 16.67,26.711 0,6.191 -2.07,11.359 -6.22,15.512 -4.14,4.148 -9.38,6.218 -15.68,6.218 -6.69,0 -11.9,-2.129 -15.63,-6.39 -3.73,-4.25 -5.61,-10.168 -5.61,-17.75 v -1.328 h -16.5 v 0.328 c 0,12.558 3.59,22.64 10.78,30.25 7.19,7.601 16.68,11.39 28.46,11.39 10.5,0 19.39,-3.66 26.67,-10.98 7.26,-7.328 10.9,-16.192 10.9,-26.578 0,-5.871 -1.37,-11.434 -4.11,-16.684 -2.73,-5.258 -7.19,-10.777 -13.4,-16.59 l -37.56,-35.34 h 54.65 V 507.07"
         style="fill:#154280;fill-opacity:1;fill-rule:nonzero;stroke:none"
         id="path88" /></g></g></svg>
